<?xml version="1.0" encoding="utf-8"?>
<!-- Generator: Adobe Illustrator 24.3.2, SVG Export Plug-In . SVG Version: 6.00 Build 0)  -->
<svg version="1.1" id="Capa_1" xmlns="http://www.w3.org/2000/svg" xmlns:xlink="http://www.w3.org/1999/xlink" x="0px" y="0px"
	 viewBox="0 0 792 293.78" style="enable-background:new 0 0 792 293.78;" xml:space="preserve">
<style type="text/css">
	.st0{fill:#BB6125;}
	.st1{fill:#044368;}
</style>
<path class="st0" d="M532.37,85.82h-36.42l-10.73,26.67v29.87c0,19.23-9.86,42.94-31.87,52.6h29.96l10.01-25.95h41.02l10.17,25.95
	h31.5L532.37,85.82z M503.49,142.75l10.17-25.27l10.67,25.27H503.49z"/>
<polygon class="st0" points="581.02,112.06 550.34,112.04 539.82,85.8 640.73,85.85 640.66,112.06 609.95,112.04 610.04,194.88 
	581.19,194.88 "/>
<path class="st1" d="M375.28,85.72l28.86-0.04l-0.01,55.7c0,12.09,6.77,26.59,22.4,26.59c15.47,0,22.24-14.67,22.24-26.59v-55.7
	l28.85,0.02v55.67c0,23.37-15.47,53.51-51.09,53.51c-35.78,0-51.26-29.98-51.26-53.51V85.72z"/>
<path class="st0" d="M441.86,144.94c0,8.51-6.9,15.41-15.41,15.41c-8.51,0-15.41-6.9-15.41-15.41c0-8.51,6.9-15.41,15.41-15.41
	C434.96,129.53,441.86,136.43,441.86,144.94"/>
<path class="st1" d="M375.38,226.55v-15.7H381v15.73c0,3.77,2.32,4.63,4.13,4.63c1.82,0,4.13-0.85,4.13-4.63v-15.73h5.63v15.7
	c0,6.48-4.38,9.93-9.76,9.93C379.72,236.49,375.38,233.03,375.38,226.55"/>
<path class="st1" d="M398.23,217.62h5.52v2.35c1.03-1.57,2.85-2.71,5.48-2.71c3.74,0,6.91,2.32,6.91,7.98v10.89h-5.52v-9.93
	c0-2.32-1.17-4.02-3.45-4.02c-2.24,0-3.42,1.71-3.42,4.02v9.93h-5.52V217.62z"/>
<path class="st1" d="M419.49,210.85h5.52v4.81h-5.52V210.85z M419.49,217.62h5.52v18.51h-5.52V217.62z"/>
<polygon class="st1" points="427.11,217.62 432.73,217.62 437.44,229.65 442.13,217.62 447.76,217.62 440,236.13 434.87,236.13 "/>
<path class="st1" d="M447.9,226.91c0-6.26,4.66-9.65,9.43-9.65c4.7,0,10.22,3.27,9.04,11.75h-13.17c0.75,1.99,2.6,2.99,5.05,2.99
	c1.64,0,3.1-0.39,4.45-1.42l2.49,2.6c-1.53,1.92-4.17,3.31-7.55,3.31C452.53,236.49,447.9,233,447.9,226.91 M461.54,225.06
	c-0.39-2.14-2.28-3.17-4.13-3.17c-1.85,0-3.7,0.96-4.31,3.17H461.54z"/>
<path class="st1" d="M469.01,217.62h5.52v5.02c0.6-2.99,2.39-5.38,5.73-5.38c0.43,0,0.85,0.04,1.32,0.18v5.23
	c-0.43-0.07-0.82-0.11-1.28-0.11c-3.67,0-5.77,2.46-5.77,5.95v7.62h-5.52V217.62z"/>
<path class="st1" d="M482.62,231.22l4.38-1.17c0.28,0.89,0.92,2.14,2.67,2.14c1,0,1.92-0.5,1.92-1.53c0-0.6-0.36-1.17-1.57-1.57
	l-2.49-0.93c-3.06-1.1-4.38-3.1-4.38-5.41c0-3.45,3.1-5.48,6.73-5.48c3.49,0,6.01,1.96,6.66,4.95l-4.31,1.07
	c-0.46-1.43-1.39-1.75-2.14-1.75c-1.07,0-1.6,0.64-1.6,1.28c0,0.6,0.35,1.18,1.6,1.57l2.32,0.85c1.99,0.68,4.63,2.07,4.63,5.41
	c0,3.74-3.17,5.84-7.3,5.84C486,236.48,483.19,234.74,482.62,231.22"/>
<path class="st1" d="M499.49,210.85h5.52v4.81h-5.52V210.85z M499.49,217.62h5.52v18.51h-5.52V217.62z"/>
<path class="st1" d="M521.89,236.13v-2.1h-0.11c-0.28,0.68-2.21,2.46-5.48,2.46c-4.2,0-8.83-3.17-8.83-9.61
	c0-6.44,4.63-9.61,8.83-9.61c3.27,0,5.2,1.78,5.48,2.46h0.11v-8.87h5.52v25.28H521.89z M517.44,231.57c2.42,0,4.59-1.67,4.59-4.7
	c0-3.03-2.17-4.7-4.59-4.7c-2.35,0-4.52,1.71-4.52,4.7C512.91,229.86,515.09,231.57,517.44,231.57"/>
<path class="st1" d="M529.86,226.87c0-6.44,4.63-9.61,8.83-9.61c3.27,0,5.2,1.78,5.48,2.46h0.1v-2.1h5.52v18.51h-5.52v-2.1h-0.1
	c-0.28,0.68-2.21,2.46-5.48,2.46C534.49,236.49,529.86,233.32,529.86,226.87 M539.83,231.57c2.42,0,4.59-1.67,4.59-4.7
	c0-3.03-2.17-4.7-4.59-4.7c-2.35,0-4.52,1.71-4.52,4.7C535.31,229.86,537.48,231.57,539.83,231.57"/>
<path class="st1" d="M566.68,236.13v-2.1h-0.11c-0.28,0.68-2.21,2.46-5.48,2.46c-4.2,0-8.83-3.17-8.83-9.61
	c0-6.44,4.63-9.61,8.83-9.61c3.27,0,5.2,1.78,5.48,2.46h0.11v-8.87h5.52v25.28H566.68z M562.23,231.57c2.42,0,4.59-1.67,4.59-4.7
	c0-3.03-2.17-4.7-4.59-4.7c-2.35,0-4.52,1.71-4.52,4.7C557.7,229.86,559.88,231.57,562.23,231.57"/>
<path class="st1" d="M596.94,210.85l9.65,25.28h-6.09l-1.42-4.02h-10.25l-1.42,4.02h-6.09l9.65-25.28H596.94z M597.19,226.91
	l-3.24-9.11l-3.24,9.11H597.19z"/>
<path class="st1" d="M625.07,236.13h-5.52v-2.35c-1.03,1.57-2.85,2.71-5.48,2.71c-3.74,0-6.91-2.32-6.91-7.98v-10.89h5.52v9.93
	c0,2.32,1.17,4.02,3.45,4.02c2.24,0,3.42-1.71,3.42-4.02v-9.93h5.52V236.13z"/>
<path class="st1" d="M630.27,230.43V222h-2.74v-4.38h2.74v-4.74h5.52v4.74h3.88V222h-3.88v7.55c0,0.92,0.53,1.92,2.21,1.92
	c0.43,0,1.07-0.07,1.74-0.28v4.2c-0.71,0.71-2.28,0.96-3.56,0.96C632.76,236.34,630.27,234.67,630.27,230.43"/>
<path class="st1" d="M641.23,226.87c0-6.3,4.98-9.61,9.83-9.61c4.84,0,9.82,3.31,9.82,9.61c0,6.3-4.98,9.61-9.82,9.61
	C646.22,236.48,641.23,233.17,641.23,226.87 M651.06,231.5c2.39,0,4.38-1.78,4.38-4.63c0-2.85-1.99-4.63-4.38-4.63
	c-2.39,0-4.38,1.78-4.38,4.63C646.68,229.72,648.67,231.5,651.06,231.5 M652.8,209.78h4.34l-3.77,5.63h-4.24L652.8,209.78z"/>
<path class="st1" d="M663.34,217.62h5.52v2.35c1.03-1.57,2.85-2.71,5.48-2.71c3.74,0,6.91,2.32,6.91,7.98v10.89h-5.52v-9.93
	c0-2.32-1.17-4.02-3.45-4.02c-2.24,0-3.42,1.71-3.42,4.02v9.93h-5.52V217.62z"/>
<path class="st1" d="M683.71,226.87c0-6.3,4.99-9.61,9.83-9.61c4.84,0,9.83,3.31,9.83,9.61c0,6.3-4.99,9.61-9.83,9.61
	C688.69,236.49,683.71,233.17,683.71,226.87 M693.53,231.5c2.39,0,4.38-1.78,4.38-4.63c0-2.85-1.99-4.63-4.38-4.63
	c-2.39,0-4.38,1.78-4.38,4.63C689.16,229.72,691.15,231.5,693.53,231.5"/>
<path class="st1" d="M717.43,225.66c0-2.35-1.28-3.49-2.96-3.49c-1.74,0-3.13,1.14-3.13,3.49v10.47h-5.52v-18.51h5.52v2.28
	c1-1.53,2.71-2.64,5.16-2.64c2.17,0,4.06,0.93,5.24,2.92c1.14-1.67,3.13-2.92,6.05-2.92c3.92,0,6.76,2.49,6.76,8.19v10.68h-5.52
	v-10.47c0-2.35-1.28-3.49-2.96-3.49c-1.78,0-3.13,1.14-3.13,3.49v10.47h-5.52V225.66z"/>
<path class="st1" d="M737.01,226.87c0-6.44,4.63-9.61,8.83-9.61c3.27,0,5.2,1.78,5.48,2.46h0.11v-2.1h5.52v18.51h-5.52v-2.1h-0.11
	c-0.28,0.68-2.21,2.46-5.48,2.46C741.64,236.49,737.01,233.32,737.01,226.87 M746.98,231.57c2.42,0,4.59-1.67,4.59-4.7
	c0-3.03-2.17-4.7-4.59-4.7c-2.35,0-4.52,1.71-4.52,4.7C742.45,229.86,744.63,231.57,746.98,231.57"/>
<path class="st1" d="M390.77,281.34v-2.96h-0.11c-0.68,1.46-3.03,3.31-6.41,3.31c-4.38,0-8.97-3.24-8.97-9.61
	c0-6.37,4.59-9.61,8.97-9.61c3.38,0,5.73,1.85,6.41,3.31h0.11v-9.72h3.91v25.28H390.77z M384.99,278.13c2.99,0,5.88-2.07,5.88-6.05
	c0-3.99-2.89-6.05-5.88-6.05c-2.96,0-5.84,2.07-5.84,6.05C379.16,276.07,382.04,278.13,384.99,278.13"/>
<path class="st1" d="M397.71,272.08c0-6.23,4.59-9.61,9.29-9.61c4.7,0,9.83,3.35,8.94,11.11h-14.53c0.6,3.2,3.13,4.84,6.3,4.84
	c1.99,0,3.77-0.64,5.13-1.92l1.85,1.92c-1.6,1.99-4.27,3.27-7.4,3.27C402.26,281.69,397.71,278.24,397.71,272.08 M412.45,270.66
	c-0.21-3.2-2.78-4.84-5.41-4.84c-2.6,0-5.09,1.56-5.66,4.84H412.45z"/>
<polygon class="st1" points="432.03,259.8 425.65,259.8 425.65,256.06 442.43,256.06 442.43,259.8 436.05,259.8 436.05,281.34 
	432.03,281.34 "/>
<path class="st1" d="M440.97,272.08c0-6.37,4.59-9.61,8.97-9.61c3.38,0,5.73,1.85,6.41,3.31h0.1v-2.96h3.92v18.51h-3.92v-2.96h-0.1
	c-0.68,1.46-3.03,3.31-6.41,3.31C445.56,281.69,440.97,278.45,440.97,272.08 M450.69,278.13c2.99,0,5.88-2.07,5.88-6.05
	c0-3.99-2.89-6.05-5.88-6.05c-2.96,0-5.84,2.07-5.84,6.05C444.85,276.07,447.73,278.13,450.69,278.13"/>
<path class="st1" d="M476.28,270.73c0-2.99-1.46-4.7-3.91-4.7c-2.53,0-4.17,1.71-4.17,4.7v10.61h-3.92v-18.51h3.92v2.64
	c0.96-1.64,2.71-2.99,5.48-2.99c2.42,0,4.49,1.07,5.63,3.38c0.99-1.81,3.02-3.38,6.19-3.38c3.88,0,6.73,2.46,6.73,8.05v10.82h-3.95
	v-10.61c0-2.99-1.46-4.7-3.92-4.7c-2.53,0-4.13,1.71-4.13,4.7v10.61h-3.95V270.73z"/>
<path class="st1" d="M495.23,272.08c0-6.37,4.59-9.61,8.97-9.61c3.38,0,5.73,1.85,6.41,3.31h0.11v-2.96h3.91v18.51h-3.91v-2.96
	h-0.11c-0.68,1.46-3.02,3.31-6.41,3.31C499.82,281.69,495.23,278.45,495.23,272.08 M504.95,278.13c2.99,0,5.88-2.07,5.88-6.05
	c0-3.99-2.89-6.05-5.88-6.05c-2.96,0-5.84,2.07-5.84,6.05C499.11,276.07,501.99,278.13,504.95,278.13"/>
<path class="st1" d="M535.49,281.34h-3.91v-2.78c-1,1.71-2.96,3.13-5.95,3.13c-3.81,0-7.09-2.39-7.09-7.98v-10.89h3.95v10.25
	c0,3.24,1.78,5.06,4.52,5.06c2.67,0,4.56-1.81,4.56-5.06v-10.25h3.91V281.34z"/>
<rect x="539.41" y="256.06" class="st1" width="3.92" height="25.28"/>
<path class="st1" d="M547.24,256.06h3.92v3.52h-3.92V256.06z M547.24,262.82h3.92v18.51h-3.92V262.82z"/>
<path class="st1" d="M555.08,262.83h3.91v2.96h0.11c0.68-1.46,3.03-3.31,6.41-3.31c4.38,0,8.97,3.24,8.97,9.61
	c0,6.37-4.59,9.61-8.97,9.61c-3.38,0-5.73-1.85-6.41-3.31h-0.11v9.72h-3.91V262.83z M564.76,278.13c2.96,0,5.84-2.07,5.84-6.05
	c0-3.99-2.88-6.05-5.84-6.05c-2.99,0-5.88,2.07-5.88,6.05C558.89,276.07,561.77,278.13,564.76,278.13"/>
<path class="st1" d="M576.62,272.08c0-6.37,4.59-9.61,8.97-9.61c3.38,0,5.73,1.85,6.41,3.31h0.11v-2.96h3.91v18.51h-3.91v-2.96H592
	c-0.68,1.46-3.02,3.31-6.41,3.31C581.21,281.69,576.62,278.45,576.62,272.08 M586.34,278.13c2.99,0,5.88-2.07,5.88-6.05
	c0-3.99-2.89-6.05-5.88-6.05c-2.96,0-5.84,2.07-5.84,6.05C580.5,276.07,583.38,278.13,586.34,278.13"/>
<path class="st1" d="M598.87,276.6l3.2-0.89c0.39,1.57,1.57,2.81,3.49,2.81c1.46,0,2.88-0.75,2.88-2.39c0-1.17-0.78-1.89-2.56-2.6
	l-2-0.75c-3.06-1.17-4.34-3.06-4.34-5.23c0-3.13,2.74-5.09,6.09-5.09c3.17,0,5.48,1.74,6.12,4.45l-3.1,0.82
	c-0.53-1.49-1.57-2.14-2.85-2.14c-1.42,0-2.42,0.78-2.42,1.99c0,0.96,0.6,1.78,2.28,2.39l1.81,0.71c2.57,0.96,4.88,2.28,4.88,5.45
	c0,3.7-3.13,5.55-6.76,5.55C602.04,281.69,599.44,279.88,598.87,276.6"/>
<path class="st1" d="M142.56,104l-0.21,0.41l-2.17-0.94l0.27-0.94L142.56,104z M239.81,94.31c0-0.19-0.15-0.34-0.36-0.34
	c-0.19,0-0.35,0.15-0.35,0.34c0,0.18,0.16,0.33,0.35,0.33C239.66,94.64,239.81,94.49,239.81,94.31 M144.11,102.79l-1.11-2.78
	l-1.42,0.88l1.89,2.24L144.11,102.79z M145.67,102.31l0.11-2.14l-0.83-0.32l0.28,2.55L145.67,102.31z M146.76,101.32
	c0-0.05,0.05-1.14-0.64-0.93c-0.02,0.25-0.15,1.91-0.15,1.91l0.54,0C146.51,102.3,146.49,101.58,146.76,101.32 M143.13,103.4
	l-1.82-2.22l-0.66,0.96l2.16,1.6L143.13,103.4z M144.91,102.49l-0.35-2.71l-1.24,0.05l1.11,2.81L144.91,102.49z M109.34,69.48
	c-2.25-4.16-0.63-8.09-2.41-12.14c2.41,3.24,6.48,2.66,6.48,2.66s-0.15-2.54-4.32-4.57c5.8-1.21,7.58,0.62,8.15,1.41
	c3.2-0.31,5.74,1.16,5.74,1.16s1.64-1.35-2.83-3.41c7.96-1.3,6.77,6.98,12.55,10.8c0.98,0.65,14.69,5.69,10.53,18.99
	c4.12,5.82,5.26,11.52,5.26,11.52s-0.04,2.78,1.33,4.73c1.37,1.96,17.33,29.76,24.51,35.99c1.8,1.71,3.66,1.66,3.66,1.66h6.23
	l-0.42-2.33l-0.58-0.83c0,0-0.62-2.37,0-2.99c1.79-8.44,8.64-4.74,8.89,0c0.79,0.91,0,2.83,0,2.83l-0.66,0.91l-0.13,2.37
	c0,0,3.91-0.08,4.53-0.04c2.13,0,3.1-0.61,4.03-1.14c4.93-2.81,24.98-37.25,24.98-37.25s0-0.17,0.02-0.44
	c-0.17-0.1-0.32-0.21-0.46-0.35c-1.97-1.97-0.08-7.34,4.42-13.88c-0.17-0.03-0.34-0.07-0.52-0.1c-0.19,0.83-0.92,1.45-1.82,1.45
	c-1.03,0-1.86-0.84-1.86-1.87c0-0.14,0.02-0.28,0.05-0.41c-5.42-1.46-8.79-3.5-8.79-5.76c0-2.79,5.14-5.25,12.94-6.69
	c-4.5-6.54-6.38-11.91-4.42-13.88c1.97-1.97,7.34-0.08,13.88,4.42c1.45-7.8,3.9-12.93,6.69-12.93c2.02,0,3.87,2.72,5.29,7.19
	c0.89,0.15,1.56,0.91,1.56,1.83c0,0.58-0.26,1.09-0.68,1.43c0.18,0.79,0.36,1.62,0.52,2.48c6.53-4.49,11.9-6.39,13.86-4.42
	c1.98,1.97,0.08,7.34-4.41,13.88c7.8,1.44,12.94,3.9,12.94,6.69c0,2.79-5.14,5.25-12.94,6.69c4.49,6.53,6.39,11.91,4.41,13.88
	c-1.48,1.48-4.89,0.77-9.27-1.58c-0.31,0.23-0.69,0.38-1.11,0.38c-1.04,0-1.88-0.83-1.88-1.87c0-0.09,0.01-0.18,0.03-0.26
	c-0.54-0.34-1.08-0.7-1.64-1.08c-1.46,7.8-3.91,12.94-6.69,12.94c-1.32,0-2.57-1.17-3.67-3.21c-1.08,1.48-2,2.67-2.33,2.96
	c-5.17,4.3-5.37,5.54-5.99,6.65c-9.45,18.51-26.28,26.69-27.34,27.26c-8.73,4.67-10.76,10.43-10.76,10.43s-1.9,3.9-3.81,8.21
	c4.08-0.88,10.9,1.46,14.92,0.61c0.6,1.04,7.31,12.53,7.48,12.58c0.17,0.05,2.67,3.08,2.67,3.08v0l0.34,0
	c0.35,0,0.64,0.28,0.64,0.64c0,0.35-0.29,0.64-0.64,0.64l-25.38-0.22c0.02,0.46-0.1,1.2-1.23,1.2c-1.13,0-2.26,0.02-3.5,0
	c-1.25-0.02-1.24-0.86-1.21-1.21l-24.94,0.23c-0.35,0-0.64-0.29-0.64-0.64c0-0.35,0.28-0.64,0.64-0.64l0.32,0v0l2.3-2.99
	c0,0,6.7-11.18,7.3-12.21c4.72,1.1,10.53-1.48,14.75-1.31c-1.61-3.36-4-7.83-4.97-9.06c-1.74-2.33-2.54-4.15-8.7-8.08
	c-14.04-5.94-24.08-16.29-32.41-31.75c-0.58-2.06-7-4.3-9.04-10.55c-1.83-1.16-5.84-6.07-5.84-6.07s-10.02-2.07-9.14-13.79
	C103.98,79.59,109.15,71.62,109.34,69.48 M163.29,173.63c7.05,1.48,18.1-1.62,22.36-1.34c1.28,0.19,1.89,0.66,2.16,0.97v-8.25
	c-0.5-0.13-0.99-0.71-1.35-1.79c-0.12-0.48-0.56-1.53-1.17-2.83c-2.69-0.78-10.22,2.01-14.52,1.33
	C170.18,162.61,163.69,172.98,163.29,173.63 M161.35,176.1l24.04-0.21c0.24-0.57,0.83-1.59,2.14-2.11
	c-1.33-2.52-15.54,1.98-24.66,0.42C162.73,174.39,161.73,175.62,161.35,176.1 M212.76,173.47c-9.04,2.09-22.69-2.21-24.02,0.31
	c1.31,0.51,1.9,1.53,2.14,2.1l24.04,0.21C214.41,175.48,212.91,173.66,212.76,173.47 M190.84,160.4c-0.41,0.94-0.83,1.9-1.21,2.83
	c-0.32,1-0.8,1.61-1.31,1.78v8.28c0.27-0.3,0.88-0.8,2.19-0.99c4.26-0.29,15,2.04,22.05,0.56c-0.41-0.65-6.27-10.88-6.86-11.76
	C201.37,161.76,193.51,159.57,190.84,160.4 M191.33,154.98c-2.51-2.58-4.28-2.26-6.9,0.16c-0.4,2.52,2.73,6.18,2.73,8.32
	c0.62,1.28,1.14,1.19,1.79,0C188.74,162.47,192.4,156.08,191.33,154.98 M251.16,94.24c-0.62-0.44-1.26-0.91-1.9-1.39
	c-1.21,1.55-2.52,3.32-2.7,3.8c-0.2,0.53-2.72,4.21-4.82,7.12c0.98,1.8,2.09,2.82,3.25,2.82
	C247.56,106.59,249.82,101.7,251.16,94.24 M226.68,99.01c2.34,0.23,6.28-1.49,10.92-4.63c0-0.48,0.16-0.9,0.45-1.22
	c-0.1-0.63-0.2-1.27-0.29-1.93c-1.4,0.7-3.08,0.65-4.39-0.11c-0.31-0.08-0.21-0.53-0.21-0.53s1.54-1.04,1.16-2.17
	c-1.06-0.22-1.03-2.14,0-2.42c-0.46-0.09-1-0.19-1.41,0c-2.92,6-2.68,6.98-4.69,8.23C227.07,94.84,226.68,97.85,226.68,99.01
	 M237.59,75.39c-0.03,1.01-0.05,2.03-0.05,3.06c0,1.03,0.02,2.06,0.05,3.06c0.55,0.59,1.13,1.18,1.71,1.77l0.19-1.76
	c0,0,0.6-0.9,1.67-0.83c1.05,0.07,1.66,1,1.66,1s0.62,0.28,0.91,0.41c1.04,0.64,2.29,2.42,3.15,3.78c0.39-0.01,0.79-0.01,1.19-0.02
	c0.32-0.3,0.64-0.62,0.96-0.93c0.76-1.59,1.67-1.96,2.02-2.16c0.06-0.03,0.14-0.05,0.21-0.07c0.38-0.39,0.77-0.78,1.14-1.17
	c0.03-1.01,0.05-2.04,0.05-3.07c0-1.03-0.01-2.06-0.05-3.06c-0.69-0.73-1.4-1.47-2.13-2.2c-0.73-0.73-1.47-1.44-2.2-2.14
	c-1.02-0.03-2.03-0.04-3.07-0.04c-1.04,0-2.06,0.02-3.07,0.04c-0.73,0.7-1.46,1.41-2.2,2.14C238.99,73.92,238.27,74.66,237.59,75.39
	 M239.31,72.77c0.58-0.58,1.15-1.13,1.73-1.69c-1.11,0.04-2.19,0.1-3.25,0.17c-0.07,1.06-0.13,2.14-0.17,3.24
	C238.17,73.92,238.73,73.35,239.31,72.77 M245,70.41c0.81,0,1.62,0.01,2.41,0.04c-0.81-0.76-1.62-1.48-2.41-2.17
	c-0.81,0.69-1.61,1.42-2.42,2.17C243.37,70.43,244.18,70.41,245,70.41 M250.68,72.77c0.57,0.58,1.13,1.15,1.69,1.73
	c-0.04-1.1-0.1-2.19-0.17-3.24c-1.06-0.07-2.14-0.13-3.24-0.17C249.53,71.64,250.1,72.19,250.68,72.77 M253.04,78.46
	c0,0.82-0.02,1.62-0.04,2.42c0.75-0.81,1.48-1.62,2.17-2.42c-0.69-0.8-1.42-1.6-2.17-2.42C253.02,76.84,253.04,77.65,253.04,78.46
	 M255.57,78.01c1.72-2,3.25-3.96,4.57-5.82c-2.25-0.39-4.72-0.69-7.35-0.89c0.09,1.25,0.15,2.54,0.19,3.85
	C253.88,76.11,254.74,77.06,255.57,78.01 M252.92,83.01c0.01,0,0.03,0.01,0.03,0.01s-0.12,1.57-0.06,2.59
	c2.59-0.21,5.03-0.5,7.25-0.88c-1.32-1.86-2.85-3.81-4.57-5.82c-0.82,0.94-1.69,1.9-2.59,2.86
	C252.97,82.19,252.94,82.59,252.92,83.01 M250.07,86.36c-0.31,0.02-0.61,0.03-0.93,0.05c-0.02,0.1-0.45,1.92-2.21,1.92
	c-0.48,0.28-0.03,1.02,0.29,1.13c0.33,0.11,0.61,0.22,0.61,0.22s-0.46,0.03-0.69,0.18c0.07,0.11,0.08,0.35,0.05,0.63
	c0.68,0.56,1.36,1.09,2.03,1.6c0.57-0.73,1.05-1.55,1.24-2.5c1.44-2.99-0.31-1.66-0.31-1.66s-0.1-0.53,0.11-1.25
	C250.23,86.53,250.16,86.43,250.07,86.36 M238.15,93.7c-0.06,0.12-0.11,0.26-0.13,0.4c0.06-0.04,0.12-0.08,0.17-0.12
	C238.17,93.89,238.16,93.8,238.15,93.7 M240.08,92.62c0.11-0.09,0.23-0.18,0.35-0.27c0.13-1.22-1.1-1.77-1.1-1.77
	s-0.28,0.34-0.72,0.12c-0.09,0.07-0.19,0.13-0.28,0.19c0.08,0.63,0.17,1.26,0.26,1.87C239.03,92.53,239.57,92.46,240.08,92.62
	 M239.46,92.93c-0.3,0-0.58,0.08-0.81,0.23c0.02,0.15,0.04,0.3,0.07,0.45c0.3-0.21,0.6-0.44,0.91-0.66
	C239.57,92.94,239.51,92.93,239.46,92.93 M233.9,87.43c0,0,0.19,0.51,0.47,0.64c0.38,0.12,1.37,0.34,1.91-0.16
	c0.09,0.06,0.52,0.25,1.14,0.35c-0.06-0.62-0.11-1.25-0.17-1.9c-0.28-0.02-0.55-0.03-0.82-0.01
	C236.72,87.63,233.9,87.43,233.9,87.43 M233.9,87.09c0.49,0.11,2.41-0.06,2.27-0.76c-0.44-0.14-0.73-0.25-1.25-0.25
	C234.51,86.26,233.68,86.76,233.9,87.09 M240.06,82.26c0,0,1,2.82,2.83,1.96c0.3-0.01,0.83,0.15,1.21,0
	c0.21,0.78,0.68,1.34,1.06,1.69c0.41,0,0.82-0.01,1.23-0.02c-0.78-1.18-1.82-2.62-2.59-3.19c-0.08-0.1-0.4-0.58-0.82-0.25
	c-0.32,0.15-0.96,1.35-2.52-0.18C240.23,81.93,240.06,82.26,240.06,82.26 M240.33,81.7c1.68,1.95,2.26,0.54,2.33,0.41
	c-0.62-0.25-0.71-0.76-1.38-1.04C241,80.99,240.13,80.96,240.33,81.7 M252.32,83.35c-0.19-0.21-0.48-0.28-0.5-0.04
	c-0.04,0.49-2.99,2.56-2.32,2.49c0.38-0.03,0.61-0.08,0.75-0.03c0.26-0.01,0.52-0.03,0.79-0.04c0.42-0.42,0.96-1.05,1.24-1.48
	C252.29,83.95,252.31,83.65,252.32,83.35 M247.31,87.35c-0.17,0.16-0.34,0.31-0.51,0.46l0.69-0.17
	C247.48,87.64,247.42,87.53,247.31,87.35 M245.62,88.87c-0.06,0.05-0.12,0.11-0.17,0.16c0.04,0.04,0.08,0.07,0.12,0.1
	C245.59,89.05,245.61,88.97,245.62,88.87 M245.93,89.43c0.04,0.03,0.07,0.06,0.11,0.1c-0.01-0.11-0.02-0.19-0.03-0.24
	C245.98,89.34,245.96,89.39,245.93,89.43 M244.55,89.03c-0.8-0.69-1.61-1.42-2.41-2.17c0.54,1.08,1.55,2.09,2.05,2.47
	C244.3,89.23,244.42,89.14,244.55,89.03 M245,88.65c0.17-0.15,0.34-0.31,0.51-0.46c-0.33-0.59-1.43-1.33-2.08-1.7
	c-0.28-0.01-0.57-0.01-0.85-0.01C243.39,87.22,244.19,87.95,245,88.65 M247.41,86.47c-0.06,0-0.11,0-0.17,0
	c0.02,0.03,0.04,0.07,0.06,0.1C247.33,86.54,247.37,86.51,247.41,86.47 M246.77,86.48c-0.34,0.01-0.69,0.01-1.03,0.01l0.28,1.24
	c0.33-0.29,0.66-0.59,0.99-0.89C246.92,86.73,246.85,86.61,246.77,86.48 M240.26,84.25c0.5,0.5,1.01,0.99,1.51,1.47
	c0.15-0.16,0.38-0.27,0.73-0.23c-1.22-0.52-1.98-0.88-2.05-1.23C240.4,84.26,240.33,84.26,240.26,84.25 M237.72,84.38
	c0.02,0.43,0.04,0.86,0.07,1.28c1.05,0.07,2.14,0.13,3.25,0.17c-0.55-0.52-1.11-1.07-1.66-1.62
	C238.65,84.23,237.95,84.31,237.72,84.38 M237.19,85.46c-0.06,0.05-0.12,0.1-0.19,0.15c0.07,0,0.13,0.01,0.2,0.02
	C237.19,85.57,237.19,85.51,237.19,85.46 M238.02,88.31c0.26,0.01,0.55,0,0.85-0.05c0.11-0.27,0.21-0.88,0.21-0.88
	s0.03,0.25,0.06,0.88c0.02,0.57,2.81,2.25,3.28,2.53c0.35-0.28,0.7-0.57,1.06-0.87c-0.01-0.03,0-0.06-0.01-0.09
	c-0.47-1.28-3.19-2.97-5.63-3.39C237.9,87.07,237.96,87.7,238.02,88.31 M244.77,89.6c0.16,0.03,0.3,0.01,0.41-0.03
	c-0.06-0.05-0.12-0.1-0.19-0.16C244.92,89.48,244.85,89.54,244.77,89.6 M243.1,91.45c0.78,1.86,0.77,4.95,1.72,5.36
	c0.95,0.4,1.31,0.31,1.48-1.01c0.26-0.98,1.5-1.99,2.57-3.24c-0.59-0.45-1.19-0.92-1.79-1.41c-0.15,0.54-0.39,1.07-0.64,1.18
	c-0.13-0.39-0.24-1.25-0.31-1.96c-0.18-0.15-0.36-0.31-0.55-0.46c-0.16,0.14-0.36,0.23-0.67,0.18c-0.01,0.58,0.17,4.22,0.17,4.22
	l-0.99-3.6C244.07,90.71,243.97,91.57,243.1,91.45 M247.88,87.6c0,0,0.43-0.37,0.68-1.15c-0.09,0-0.17,0.01-0.26,0.01
	c-0.23,0.22-0.47,0.42-0.7,0.63C247.78,87.4,247.88,87.6,247.88,87.6 M252.35,82.79c0-0.12,0.02-0.24,0.02-0.37
	c-0.09,0.1-0.19,0.2-0.29,0.3C252.18,82.74,252.27,82.76,252.35,82.79 M237.69,83.91l1.33-0.04c-0.47-0.48-0.95-0.97-1.41-1.44
	C237.64,82.93,237.67,83.41,237.69,83.91 M236.94,81.7c-0.38-0.41-0.73-0.81-1.1-1.21c-0.1,0.42-0.32,0.51-0.57,0.8
	c-0.36,0.03-0.59,0.26-0.58,0.55c0.01,0.38-0.9,1.16-1.07,2.91c0.09,0.7,0.9,0.49,0.9,0.49c-0.2-0.63,0.16-1.47,0.58-1.33
	c0.41,0.13,0.93-0.26,1.38-0.02C236.38,83.19,236.76,82.47,236.94,81.7 M236.98,80.6c-0.02-0.11-0.04-0.23-0.08-0.34
	c-0.19-0.29-0.5-0.34-0.73-0.28c0.27,0.3,0.53,0.6,0.81,0.91C236.98,80.78,236.98,80.69,236.98,80.6 M236.84,83.94l0.27-0.01
	c-0.01-0.25-0.03-0.51-0.04-0.76C236.95,83.63,236.84,83.94,236.84,83.94 M236.96,79.15c0-0.23-0.01-0.46-0.01-0.7
	c0-0.81,0.01-1.61,0.03-2.41c-0.76,0.81-1.48,1.61-2.17,2.41c0.26,0.3,0.54,0.6,0.81,0.9c0.1-0.08,0.19-0.16,0.26-0.24
	C236.28,78.71,236.67,78.87,236.96,79.15 M237.2,71.3c-2.63,0.2-5.1,0.5-7.36,0.89c1.32,1.86,2.86,3.82,4.57,5.82
	c0.83-0.95,1.69-1.9,2.59-2.86C237.04,73.84,237.11,72.55,237.2,71.3 M234.41,78.92c-1.72,2.01-3.25,3.95-4.57,5.82
	c0.24,0.04,0.5,0.08,0.75,0.12c0.71-1.24,1.24-2.19,1.34-2.41c0.67-1.3,1.52-1.65,1.52-1.65s0.94-0.53,1.7-1.07
	C234.91,79.45,234.65,79.18,234.41,78.92 M235.31,85.45c0.34,0.03,0.69,0.06,1.04,0.09c0.13-0.02,0.23-0.03,0.25-0.03
	c0.1-0.01,0.37-0.23,0.56-0.49c-0.01-0.2-0.02-0.42-0.03-0.62c-0.96-0.23-1.31,0.08-2.04-0.03
	C234.79,85.01,234.98,85.31,235.31,85.45 M238.08,94.76c0.08,0.2,0.19,0.39,0.36,0.54c-0.05-0.23-0.09-0.45-0.14-0.69
	C238.23,94.66,238.15,94.7,238.08,94.76 M239.09,95.64c0.11,0.03,0.23,0.05,0.36,0.05c0.81,0,1.47-0.62,1.47-1.38
	c0-0.47-0.25-0.88-0.62-1.13c-0.49,0.37-0.99,0.72-1.47,1.06C238.91,94.72,239,95.18,239.09,95.64 M239.38,96.97
	c0.31,1.34,0.65,2.57,1.03,3.67c0.61-0.93,1.13-1.95,1.54-3.08c-0.49-2.17-1.56-1.37-2.56-1.49
	C239.42,96.3,239.41,96.63,239.38,96.97 M251.82,89.71c-0.17,0.3-0.33,0.53-0.44,0.63c-0.2,0.15-0.92,1.01-1.75,2.06
	c0.56,0.42,1.11,0.83,1.65,1.21C251.48,92.38,251.66,91.07,251.82,89.71 M256.57,95.95c0-0.77-0.63-1.4-1.4-1.4
	c-0.57,0-1.06,0.34-1.28,0.82c0.25,0.16,0.49,0.31,0.74,0.45c-0.01,0.04-0.03,0.08-0.03,0.12c0,0.31,0.25,0.56,0.57,0.56
	c0.14,0,0.27-0.06,0.37-0.14c0.24,0.14,0.49,0.28,0.73,0.41C256.45,96.54,256.57,96.27,256.57,95.95 M255.81,97.18
	c-0.66-0.37-1.34-0.77-2.04-1.21c0.01,0.77,0.64,1.38,1.4,1.38C255.41,97.35,255.62,97.28,255.81,97.18 M260.52,85.25
	c-2.32,0.41-4.87,0.72-7.56,0.93c0.07,0.34-0.1,1.04-0.36,1.78c-0.2,2.13-0.47,4.14-0.79,6.02c0.58,0.4,1.15,0.78,1.71,1.14
	c0.31-0.61,0.93-1.04,1.67-1.04c1.03,0,1.86,0.84,1.86,1.87c0,0.39-0.12,0.75-0.32,1.05c3.88,2.04,6.87,2.65,8.18,1.35
	C266.7,96.54,264.84,91.47,260.52,85.25 M260.78,72.29c-1.39,1.98-3,4.05-4.82,6.16c1.82,2.12,3.43,4.19,4.82,6.17
	c7.46-1.34,12.35-3.6,12.35-6.17C273.13,75.9,268.23,73.63,260.78,72.29 M251.8,62.94c0.41,2.38,0.73,4.99,0.95,7.76
	c2.78,0.21,5.39,0.54,7.77,0.95c4.32-6.22,6.18-11.28,4.37-13.09C263.07,56.76,258.01,58.61,251.8,62.94 M251.27,63.31
	c-1.86,1.32-3.82,2.86-5.83,4.57c0.95,0.83,1.9,1.69,2.86,2.59c1.31,0.04,2.6,0.1,3.85,0.19C251.95,68.03,251.65,65.56,251.27,63.31
	 M249.82,57.03c-0.69,0.08-1.24,0.65-1.24,1.36c0,0.78,0.62,1.41,1.4,1.41c0.2,0,0.39-0.04,0.57-0.12
	c-0.07-0.29-0.14-0.58-0.21-0.86c0.12-0.1,0.21-0.25,0.21-0.43c0-0.27-0.2-0.49-0.47-0.54C249.98,57.57,249.9,57.3,249.82,57.03
	 M250.45,57.09c0.21,0.69,0.41,1.43,0.59,2.19c0.2-0.24,0.34-0.55,0.34-0.89C251.38,57.79,250.99,57.29,250.45,57.09 M238.83,62.67
	c1.98,1.39,4.05,3.01,6.17,4.82c2.11-1.81,4.19-3.43,6.16-4.82c-0.16-0.88-0.33-1.73-0.51-2.54c-0.21,0.08-0.44,0.13-0.67,0.13
	c-1.03,0-1.87-0.83-1.87-1.87c0-0.93,0.68-1.69,1.57-1.83c-1.28-3.9-2.91-6.24-4.68-6.24C242.43,50.33,240.17,55.22,238.83,62.67
	 M237.84,70.66c1.25-0.09,2.54-0.15,3.85-0.19c0.95-0.9,1.91-1.76,2.86-2.59c-2.01-1.71-3.96-3.25-5.83-4.57
	C238.34,65.56,238.04,68.03,237.84,70.66 M229.47,71.66c2.38-0.42,4.99-0.74,7.77-0.95c0.21-2.78,0.53-5.39,0.95-7.76
	c-6.21-4.33-11.28-6.18-13.08-4.38C223.28,60.38,225.15,65.44,229.47,71.66 M227.85,84.95c-0.27-0.05-0.54-0.11-0.8-0.17
	c0.01-0.05,0.03-0.1,0.03-0.15c0-0.23-0.14-0.42-0.34-0.51c0.37,0.08,0.74,0.16,1.13,0.24c-0.13-0.64-0.67-1.13-1.35-1.13
	c-0.45,0-0.84,0.23-1.1,0.57c0.39,0.1,0.8,0.2,1.22,0.3c-0.04-0.01-0.08-0.02-0.13-0.02c-0.28,0-0.5,0.2-0.54,0.46
	c-0.27-0.06-0.53-0.13-0.8-0.2c-0.02,0.09-0.06,0.19-0.06,0.29c0,0.77,0.63,1.4,1.4,1.4C227.17,86.03,227.7,85.57,227.85,84.95
	 M229.21,84.63c1.39-1.98,3-4.05,4.82-6.17c-1.81-2.11-3.43-4.19-4.82-6.16c-7.45,1.34-12.34,3.6-12.34,6.16
	c0,2.03,3.07,3.87,8.05,5.22c0.32-0.55,0.91-0.92,1.59-0.92c0.98,0,1.77,0.75,1.85,1.71C228.64,84.52,228.92,84.57,229.21,84.63
	 M224.96,98.18c0.16-1.84,0.56-4.78,1.6-6.49c0.93-1.52,2.51-4.21,3.71-6.3c-0.27-0.04-0.55-0.08-0.81-0.13
	C225.27,91.29,223.41,96.23,224.96,98.18 M184.3,135.78c2.12,3.27,5.26,3.06,6.73-0.09c0.25-0.21,0.39-0.68,0.39-0.68
	s0.61-1.55,0.26-2.89c-1.4-5.5-6.54-6.56-7.92,0.1c-0.73,0.94,0.04,2.53,0.14,2.75C183.89,135.29,184.2,135.66,184.3,135.78
	 M139.59,81.08c-0.68-0.31-1.08,0.32-1.08,0.32s-1.47-0.54-1.84-1.34c0.02,1.46,0.78,2.03,1.08,2.34c1.46,0.67,2.89,2.44,3.29,2.91
	c1.13,1.17,2.44,6.73,3.3,7.47c0.57,1.93,1.8,1.52,2.18,2.68c1.37,1.46,1.02,6.06,1.84,7.22c0.78,2.64,1.77,4.64,2.5,5.28
	c2.18,10.79-4.38,6.7-4.38,6.7l-7.98-9.01l-1.31-0.17l-0.21-0.57h-1.43c0,0,0.49-3.15-1.13-2.98c-0.53,0.37-0.26,1.19-0.26,1.19
	l-2.57-2.39l-0.1-3.03h-1.39c0,0-0.38-3.91,1.11-6.5c0.27-0.46,0.78-0.14,0.78-0.14l2.6-2.07l0.15-0.72l3.11,0.25
	c0,0,1.34,0.23,1.72-0.25c-0.62,0.01-0.92,0.14-1.15-0.16c-0.47-0.23-0.43-0.94-0.43-0.94s-1.17-0.31-1.93-0.08
	c-0.91-0.03-1.7,0.36-2.16,0.55c-2.05,1.16-3.5,2.87-3.96,3.38c-0.39,1.18-1.06,5.39-1.06,5.39s-0.12-5.45,0.21-6.21
	c0.28-0.35,0.85-0.2,0.85-0.2l2.18-3.18l0.26-0.18c0,0,0,0.52,0.14,0.58c0.33,0.48,1.23,0.06,1.23,0.06l0.32-0.46l0.4-0.82l0.62-0.2
	c0,0,1.31,0.49,1.4,0.49c0.08,0,1.55,0.3,1.63,0.3c0.09,0,0.71,0.03,0.96,0.03c0.47-0.21,0.17-0.62,0.17-0.62s-0.96,0.16-1.49-0.12
	c-0.23-0.11-0.7-0.83-0.44-1.19c-0.64-0.41-1.64-0.29-3.09-0.29c-0.61-0.05-1.03,0.22-1.49,0.53c-2.12,1.31-4.45,4.14-4.66,4.78
	c-0.21,0.63-0.26,3.29-0.26,3.29s-0.78-2.28-1.1-2.51c-0.32-0.23-0.59-0.26-0.59-0.26s0.4-0.2,0.44-0.52
	c0.47-0.36,2.25-4.99,3.3-5.69c0.03,1.57,1.71,0.86,2.24,0.73c1.38-0.58,1.64-1.95,1.64-1.95s-1.17,0.76-2.29,0.44
	c-0.38-0.11-0.75-0.42-0.75-0.84c-2.06,0.53-4.89,5.23-5.01,6.2c-0.56,0.98-0.56,2.17-0.29,2.6c-0.09,1.43,1.75,4.61,1.75,4.61
	s-2.71-2.36-3.09-3.94c-0.38-0.93-0.23-1.9-0.23-1.9s-1.25-1.17-1.42-2.45c-1.4-0.52-0.9,0.93-0.9,0.93l2.23,4.4
	c0,0,5.19,6.27,6.53,6.85c1.85,4.63,7.39,8.72,7.72,8.98c1.17,0.46,1.41,0.91,1.73,1.78c0.93,2.42,5.85,6.5,6.32,6.91
	c4.49,0.35,4.17,4.96,4.84,6.73c8.22,9.89,15.42,15.34,24.28,17.76c3.38,0.7,2.72-0.23,3.12-1.4c2.01,12.13,8.68,7.45,8.87,7.11
	c-2.83,5.81-7.67-1.01-8.03-0.96c0.49,1.69,4.53,7.02,5,7.76c4.28-4.17,6.42-0.87,7.28,0c3.99-3.87,5.42-9.45,4.84-9.09
	c-5.28,8.19-8.41,2.48-8.28,2.21c1.83,1.25,6.67,2.59,8.77-7.23c0.23,0.94,0.58,2.07,0.78,2.74c0.44,1.31,1.06,0.62,1.64,0.32
	c3.81-3.67,18.05-9.88,23.94-18.37c0.96-2.01,5.47-5.6,5.21-17.47c-0.72-0.14-4.46,5.02-4.46,5.02s5.63-8.05,6.47-10.15
	c-0.91,5.25,4.99,3.04,5.19,2.74c1.75-0.95,3.24-2.24,4.43-3.86c-0.29-0.84-0.57-1.74-0.82-2.72c-0.05,0.27-0.08,0.46-0.08,0.48
	c0,0.04-0.05-0.66-0.15-1.41c-0.12-0.52-0.25-1.05-0.36-1.6c-0.03-0.04-0.06-0.08-0.09-0.08c-0.43,1.57-1.75,2.71-1.75,2.71
	s0.82-1.23,0.79-2.56c-0.96,1.77-5.45,4.19-5.45,4.19s3.75-2.28,5.48-4.96c-3,3.35-10.42,4.93-11.29,4.99
	c-0.06,2.06,1.84,2.24,2.28,2.33c-0.9,1.03-2.08,3.09-2.08,3.09s0.58-2.51,0.27-3.52c-0.17-0.29-0.68-0.33-0.9,0.05
	c-1.25,3.08-10.74,16.49-11.34,17.35c-0.61,0.85-10.27,16.79-16.27,19.36c-4.2,0.09-6.94,0.34-6.94,0.34s0.05-0.6-0.58-0.6
	c-1.84,1.26-5.4,0.52-5.86,0c-0.51,0.1-0.67,0.26-1.06,0.76c-2.07-0.5-6.56,0.17-8.1-0.44c-1.16-0.27-5.88-4.58-7.87-6.38
	c-4.03-4.09-10.62-15.45-10.62-15.45l-7.43-15.04c0,0-1.61-2.13-2.25-6.41c-0.63-4.29-3.09-7.82-3.09-7.82S140.9,81.61,139.59,81.08
	 M122.3,86.83c0.24-0.17,0.16-2.12,0-2.52c-0.16-0.4-2.13-0.93-1.56,0.27c0.56,1.2,0.6,1.41,0.6,2.25
	C121.54,86.66,121.98,86.47,122.3,86.83 M140.27,80.62c-1.3-8.01-16.04-9.59-17.54,3.01c0.98,0.44,1.22,1.08,1.46,1.29
	c-0.51-5.7,7.91-11.21,13.08-6.1c0.46,0.57,0.98,0.78,1.44,0.81C139.18,79.67,139.73,80.26,140.27,80.62 M138.27,79.82
	c-0.43-0.08-0.9-0.33-1.1-0.68c-0.05-0.03-0.22-0.12-0.33,0.27c-0.14,0.84,1.61,1.64,1.61,1.64s0.13-0.38,0.71-0.41
	C139.24,80.58,138.7,79.9,138.27,79.82 M129.31,82.86l1.15-0.91l-0.75-0.9l-1.16,0.91L129.31,82.86z M128.2,82.28l-0.81,0.91
	l0.68,0.86l0.79-0.88L128.2,82.28z M130.84,81.76l1.19-0.71l-0.85-1.16l-1.18,0.65L130.84,81.76z M132.5,80.94h1l-0.74-1.53
	l-1.06,0.27L132.5,80.94z M131.54,82.81c0.6,0.1,1.68,0.11,2.33-0.59c0.32-0.7-0.19-0.98-0.46-0.76c-0.28,0.2-1.97,0.24-2.16,0.64
	C131.06,82.47,131.28,82.77,131.54,82.81 M135.27,83.95l0.74-0.11l-1.85-4.32l-0.98-0.1L135.27,83.95z M136.56,83.71l0.87,0.13
	l-1.8-3.75l-0.92-0.4L136.56,83.71z M136.72,78.86c-7.09-4.32-12.76,3.11-11.99,6.63c-0.04,0.39-0.35,0.25-0.35,0.25
	s0.16,2.19,0.19,2.67c0.13,0.93,0.53,0.85,0.59,0.23c0.05-0.29,0.34-2.13,1.52-3.03c-0.89-2.91,4.58-9.15,9.47-5.69
	C136.12,79.44,136.38,79.09,136.72,78.86 M147.21,101.47c0-0.84-0.43-1.62-1.21-1.92c-2.93-0.98-5.85,0.82-6.32,3.93
	c0,0.94,0.72,2.09,1.69,2.11c0.67,0,1.27,0.8,1.27,0.8s3.42,4.06,4.17,4.28c1.59,0.71,3.03-0.3,2.7-1.96
	c-0.12-0.72-2.24-5.53-2.24-5.53S146.91,102.53,147.21,101.47 M145.3,97.63c-0.65-0.46-2.26-1.15-4.37-0.09
	c-0.76,0.39-3.06,1.86-3.4,3.67c-0.22,1.84,1.26,2.22,1.7,2.12c0.63-5.08,5.37-4.87,6.56-4.36
	C146.58,99.02,145.77,98.06,145.3,97.63 M145.6,96.61c-0.26-0.27-1.23-1.11-2.24-1.12c-0.91-0.06-4.37,0.47-6.36,4
	c-0.22,1.29,0.33,0.86,0.4,0.56c0.83-1.36,4.64-5.25,7.9-2.82C145.49,97.33,146.07,97.4,145.6,96.61 M137.43,88.96h-1.19l3.62,7.04
	l0.68-0.34L137.43,88.96z M140.86,95.5l0.66-0.18l-2.86-6.36h-0.84L140.86,95.5z M135.85,89.11h-0.68l-0.19,0.53l4.04,6.97l0.5-0.37
	L135.85,89.11z M134.71,89.99h-0.75l-0.14,0.6l4.27,6.78l0.58-0.58L134.71,89.99z M133.61,90.89h-0.68l-0.21,0.47l4.72,6.7l0.4-0.42
	L133.61,90.89z M132.44,91.62c0-0.07-0.74-0.13-0.74-0.13s-0.02,0.9,0,0.97l5.11,6.68l0.43-0.79
	C137.25,98.36,132.44,91.7,132.44,91.62 M142.64,95.18l-2.72-6.22h-0.69l2.72,6.22H142.64z M138.27,87.3c0,0,0.02,0.43,0.39,0.59
	c0.28,0.18,0.73,0.21,1.47-0.11C140.54,86.84,138.27,87.3,138.27,87.3 M137.87,85.55c0,0,0.8,0.4,1.36,0.07
	c0.55-0.33,0.14-0.53,0.14-0.53s-1.2-0.54-1.61-0.31C137.35,85.01,137.87,85.55,137.87,85.55 M128.95,67.9
	c-3.83,0.54-13.84,6.39-12.81,16.79c0.8,6.35,6.88,8.3,6.88,8.3l-2.1-4.45l-0.16-2.28c0,0-0.54-1.33-1-1.91
	c0.08-0.49,0.96-1.5,2.42-1.04c1.71-12.83,17.25-11.96,18.74-2.28c0.21,0.62,1.45,2.24,2.13,1.98
	C143.87,81.52,143.99,65.74,128.95,67.9 M124.34,67.4c2.39-0.04,3.01-2.5,8.4-1.43c-3.62-2.62-6.32-5.24-6.71-6.16
	c-0.13,0.14-0.34,0.76-0.42,1.15c-0.54-0.39-0.92-0.73-1.26-2.31C123.7,58.85,121.72,63.2,124.34,67.4 M122.01,63.45
	c-0.19-0.37-4.14-2.52-8.01-2.19c4.85,1.76,4.12,11,4.12,11s3.91-4.01,5.56-4.57C123.16,67.07,121.82,65.85,122.01,63.45
	 M117.13,57.92c0,0,1.85,1.54,2.35,3.04c1.38,0.31,1.69,0.58,2.85,1.31C123.1,58.31,117.13,57.92,117.13,57.92 M114.16,60.27
	c1.71-0.1,3.28,0.28,4.36,0.69c-0.21-2.06-4.31-3.72-4.31-3.72s0.87-0.35,1.9-0.28c-1.21-1.64-5.06-1.12-5.06-1.12
	S114.16,57.25,114.16,60.27 M114.77,79.68c1.99-0.02-0.3-4.17,2.41-6.7c0.72-1.51-0.36-6.75-0.36-6.75s-1.43-2.48-3.49-3.67
	C114.71,68.15,101.76,77.07,114.77,79.68 M109.83,69c0,0,6.32-6.14-1.57-9.34c0.3,1.33,0.78,3.97,0.3,5.18
	C108.53,65.83,109.83,69,109.83,69 M146.7,103.62c-1.77,0.15-2.95,1.07-3.36,2.32c0.06,0.4,1.07,1.24,1.07,1.24s2.99,2.69,3.07,2.71
	c0.95,0.22,1.47-0.29,1.56-1.08c-0.05-0.08-1.56-3.9-1.56-3.9S147.07,103.73,146.7,103.62 M140.98,104.99c0.36-0.11,1,0.22,1,0.22
	l0.23-0.48c0,0-1.79-0.63-2.02-0.72C140.14,104.6,140.94,104.97,140.98,104.99 M146.69,103.16c0.1,0,0.37-0.29,0-0.44
	c-1.53-0.3-4.14,1.37-4.28,2.6c0.03,0.33,0.14,0.42,0.41,0.24C143.67,103.68,145.8,103.26,146.69,103.16 M245.57,78.64
	c0.34,0,0.61-0.27,0.61-0.6s-0.27-0.61-0.61-0.61c-0.33,0-0.6,0.27-0.6,0.61S245.24,78.64,245.57,78.64 M241.9,78.64
	c0-1.62,1.32-2.95,2.95-2.95c1.64,0,2.96,1.32,2.96,2.95c0,1.64-1.32,2.95-2.96,2.95C243.22,81.59,241.9,80.27,241.9,78.64
	 M242.64,78.64c0,0.47,0.14,0.89,0.38,1.25c2.12-0.1,2.89,0.69,3.59,0.08c0.28-0.37,0.45-0.83,0.45-1.34c0-1.22-0.99-2.21-2.22-2.21
	C243.62,76.43,242.64,77.41,242.64,78.64 M226.63,84.1c0.03,0.01,0.07,0.02,0.1,0.02C226.7,84.11,226.67,84.11,226.63,84.1
	 M249.41,58.39c0,0.32,0.25,0.56,0.56,0.56c0.14,0,0.26-0.05,0.36-0.13c-0.09-0.33-0.18-0.65-0.26-0.97
	c-0.03-0.01-0.06-0.02-0.09-0.02C249.66,57.84,249.41,58.09,249.41,58.39 M255.73,95.95c0-0.31-0.25-0.56-0.55-0.56
	c-0.27,0-0.48,0.19-0.54,0.44c0.3,0.18,0.61,0.36,0.91,0.54C255.65,96.26,255.73,96.12,255.73,95.95 M226.51,85.19
	c0.26,0,0.47-0.17,0.53-0.41c-0.36-0.08-0.73-0.16-1.08-0.24c-0.01,0.03-0.02,0.06-0.02,0.09
	C225.94,84.95,226.19,85.19,226.51,85.19 M65.91,130.96c4.16-67.51,62.26-118.87,129.78-114.71
	c67.52,4.16,118.87,62.26,114.72,129.78c-4.16,67.51-62.26,118.88-129.78,114.72C113.11,256.58,61.75,198.47,65.91,130.96
	 M180.82,257.51c65.74,4.05,122.31-45.95,126.35-111.68c4.05-65.74-45.95-122.31-111.69-126.36
	C129.76,15.42,73.19,65.42,69.14,131.15S115.1,253.46,180.82,257.51 M277.39,161.77c0.08,0.1,9.35,6.03,10.06,6.56
	c-0.39,1.25-0.27,2.07,0.3,2.97c0.68-1.33,1.31-1.89,1.31-1.89l4.08,2.89l1.2,1.39l0.78-2.89l-1.27,0.39c0,0-2.97-2.16-3.88-2.83
	c2.1-2.37,1.03-4.17,0.58-4.58c-0.3,1.66-2.53,2.13-2.72,3.35c-0.88-0.57-4.4-2.82-4.4-2.82l12.43-2.09l0.93,1.13l0.78-4.63
	l-1.45,0.91C296.13,159.63,277.3,161.66,277.39,161.77 M293.91,130.29c4.11,1.65,3.94,6.8,3.94,6.8l-15.16,0.09l-2.08-0.94
	l0.01,5.22l1.87-0.87l15.93,0.6l1.38,0.84l-0.44-12.09C299.35,129.94,295.38,130.2,293.91,130.29 M280.81,143.14l-0.5,3.79l1.39-0.4
	l11.22,4.92l-11.8,2.99l-1.18-0.88l-1.08,5.71l1.32-1.27l19.83-4.61l-18.22-8.85L280.81,143.14z M272.3,96.71
	c0.08-1.17,1.66-3.12,1.66-3.12s-3.37,1.29-4.91,2.95c0.61,0.02,1.99,0.19,1.99,0.19s-1.09,4.91,3.33,6.01
	c3.58,0.63,6.42-1.65,6.72-5.95c0.04-2.39-1.48-7.1,3.08-7.47c0.27,0.09,3.74,0.19,3.62,5.7c-0.23,0.35-0.92,1.99-0.92,1.99
	l4.38-2.51l-1.72-0.46c0,0-0.39-4.91-4.05-6.3c-5.5-1.33-8.38,1.98-8.05,7.17c0.09,4.08-0.38,4.68-0.92,5.44
	C275.71,101.02,272.36,102.39,272.3,96.71 M103.9,103.93l1.86-3.33l-1.44-0.14l-8.62-8.69l12.07,1.54l0.78,1.25l3.1-4.92l-1.7,0.7
	l-20.14-3l13.7,14.92L103.9,103.93z M273.81,170.44l10.04,11.2l-15.83,1.39l16.26,9.29l1.19,1.6l1.61-3.06l-2.03,0.02L275,185.2
	l14.14-0.1l-8.94-9.6l10.27,3.61l1.21,1.43l1.76-5.15l-1.51,0.82L273.81,170.44z M291.13,100.4l1.39,0.46l-1.83-4.34l-0.72,1.55
	c0,0-14.85,11.75-14.72,11.81c0.12,0.04,11.12,0.11,12.01,0.19c0.33,1.27,0.87,1.89,1.83,2.36c-0.13-1.5,0.09-2.31,0.09-2.31
	l4.99,0.27l1.76,0.54l-0.88-2.86l-0.87,1c0,0-3.66-0.23-4.79-0.31c0.51-3.13-1.36-4.07-1.95-4.2c0.64,1.58-1,3.15-0.51,4.3
	c-1.05-0.01-5.23-0.05-5.23-0.05L291.13,100.4z M260.92,199.94l-0.07-0.15c1.31-0.98,3.02-1.57,5-1.83
	c-0.46-0.36-3.95-2.69-3.95-2.69s-6.91,8.74-7.34,9.28c0,0,2.67,2.41,3.56,3.2c-0.28-2.13-0.05-3.86,0.56-5.26l12.33,10.46
	l0.58,1.52l3.46-4.19l-1.7-0.45L260.92,199.94z M281.46,125.42l-2.22-0.63l0.76,5.16l1.75-1.14l16.1-1.81l1.51,0.63l-0.68-5.39
	l-1.49,0.93L281.46,125.42z M295.46,115.4l1.12-1.18l1.08,5.14l-1.52-0.45c0,0-15.29,2.75-15.83,3.8c-0.42,0.57-1.19,1.63-1.19,1.63
	s-0.65-2.2-0.72-3.11c-0.23-1.98-1.13-3.11-1.14-4.96c-0.11-5.69,9-5.15,9.84-3.43c1.47,2.01,0.05,3.17,1.3,4.28
	C288.99,117.05,295.46,115.4,295.46,115.4 M286.83,115.67c-0.3-1.15-2.3-1.63-4.47-1.07c-2.17,0.56-3.69,1.95-3.4,3.1
	c0.31,1.15,2.31,1.62,4.47,1.06C285.61,118.22,287.13,116.83,286.83,115.67 M150.08,223.67l-0.06,1.45l-8.19,9.11l0.86-12.14
	l1.2-0.84l-5.08-2.83l0.79,1.65l-1.84,20.29l14.11-14.52l1.66-0.5L150.08,223.67z M166.53,245.1c3.57-0.07,6.85,4.26,10.08,1.48
	C173.7,247.12,172.14,241.3,166.53,245.1 M257.51,223.01c0.71,1.14,1.47,2.85,0.14,3.9c-1.17,0.86-8.32,6.16-8.32,6.16l-0.05-2.38
	l-3.4-4.63c-0.86,0.06-1.6,0.22-1.96,1.03c-0.09-1.3,0.2-2.14,0.71-2.73l-4.71-6.41l-2.03-0.45c0,0,6.05-4.37,7.65-5.5
	c1.38-0.96,2.57-0.51,3.16,0.2C249.29,212.92,256.46,221.75,257.51,223.01 M254.19,224.51c-0.9-1.08-6.96-8.77-7.47-9.39
	c-0.5-0.62-1.51-1.01-2.71-0.18c-0.37,0.27-0.66,0.47-1.42,1.02l4.99,6.9c1.09-0.37,2.18-0.77,2.86-1.74
	c-0.06,2.18-0.52,3.37-1.2,4.04l3.04,4.21c1.16-0.86,1.81-1.35,2.17-1.61C255.59,226.85,254.8,225.49,254.19,224.51 M178.39,238.94
	c-1.16,2.99-4.44,4.51-7.33,3.39c-2.89-1.11-4.3-4.44-3.15-7.43c1.15-3,4.44-4.52,7.33-3.4
	C178.14,232.62,179.55,235.94,178.39,238.94 M173.65,233.18c-1.2-0.15-2.33,0.9-2.52,2.37l-0.35,2.73
	c-0.19,1.46,0.63,2.77,1.84,2.93c1.2,0.16,2.33-0.9,2.51-2.37l0.35-2.73C175.66,234.64,174.84,233.33,173.65,233.18 M127.22,223.41
	c-1.02-0.83-1.82-1.01-2.87-0.81c0.98,1.12,1.29,1.92,1.29,1.92l-4.19,2.72l-1.74,0.6l2.41,1.8l0.11-1.32c0,0,3.08-1.97,4.05-2.57
	c1.43,2.82,3.49,2.49,4.04,2.23c-1.44-0.89-1.05-3.14-2.11-3.76c0.85-0.6,4.24-3.04,4.24-3.04l-2.62,12.32l-1.41,0.45l4.03,2.44
	l-0.31-1.69c0,0,5.03-18.25,4.9-18.22C136.89,216.51,127.98,222.94,127.22,223.41 M96.75,118.5l1.86,1.36l1.12-5.09l-0.06,0.01
	l1.27-3.4l-1.9,0.08l-9.34-3.52l14.22-3.03l-16.96-7.95l-1.32-1.5l-1.37,3.18l2.03-0.18l10.48,4.85l-15.82,3.28l17.4,6.9l1.24,1.31
	l-1.92,0.41L82,111.19l-1.19-1.12l-1.27,5.28l1.72-0.34L96.75,118.5z M167.49,229.63c0,0-10.73-3.02-11.39-3.21
	c0,0-1.2,3.39-1.59,4.51c1.87-1.06,3.55-1.53,5.07-1.49l-4.92,15.41l-1.19,1.11l5.2,1.58l-0.24-1.74l4.38-15.26l0.11-0.12
	c1.39,0.84,2.59,2.18,3.61,3.91C166.68,233.75,167.49,229.63,167.49,229.63 M219.39,225.94l-2.57,14.82l-10.9-11.57l2.79,18.53
	l-0.52,1.93l3.4-0.63l-1.27-1.59l-1.78-11.42l8.85,11.04l2-12.96l3.55,10.3l-0.39,1.84l5.14-1.82l-1.59-0.67L219.39,225.94z
	 M227.86,222.73c-0.02,0.14,1.15,11.07,1.2,11.96c-1.22,0.48-1.79,1.08-2.14,2.09c1.47-0.31,2.3-0.17,2.3-0.17l0.3,4.99l-0.34,1.81
	l2.75-1.21l-1.09-0.74c0,0-0.19-3.66-0.23-4.8c3.16,0.15,3.89-1.8,3.94-2.41c-1.49,0.81-3.25-0.63-4.32-0.02
	c-0.11-1.03-0.55-5.18-0.55-5.18l9.41,8.37l-0.3,1.44l4.11-2.31l-1.62-0.55C241.28,235.99,227.89,222.6,227.86,222.73
	 M193.61,237.57c0.19-3.2,2.86-5.65,5.95-5.46c3.09,0.19,5.44,2.94,5.25,6.14c-0.2,3.2-2.87,5.64-5.96,5.45
	C195.74,243.51,193.41,240.77,193.61,237.57 M196.85,237.21l0.49,2.71c0.27,1.45,1.44,2.46,2.63,2.24c1.19-0.21,1.94-1.57,1.68-3.03
	l-0.49-2.71c-0.26-1.45-1.44-2.45-2.64-2.24C197.35,234.41,196.59,235.76,196.85,237.21 M189.37,233.51l-0.15,9.98l-7.66-12.35
	l-1.75,18.64l-0.97,1.75l3.45,0.21l-0.86-1.85l1.03-11.51l8.43,13.78l0.61-18.71l0.84-1.66l-3.69-0.05L189.37,233.51z
	 M195.36,247.71c3.38-1.14,7.81,1.99,10.04-1.64C202.81,247.47,199.56,242.4,195.36,247.71 M265.19,190.95
	c0.04,0.13,6.44,9.06,6.91,9.82c-0.83,1.02-1.02,1.81-0.82,2.87c1.13-0.98,1.91-1.27,1.91-1.27l2.72,4.19l0.6,1.74l1.8-2.4
	l-1.31-0.12c0,0-1.97-3.09-2.56-4.05c2.82-1.43,2.5-3.49,2.24-4.04c-0.89,1.43-3.14,1.04-3.76,2.1c-0.61-0.85-3.04-4.25-3.04-4.25
	l12.32,2.67l0.44,1.4l2.45-4.03l-1.69,0.32C283.39,195.9,265.15,190.81,265.19,190.95 M84.29,158.11c0.41-1.17,0.09-1.94-1.03-2.12
	c-3.51-0.19-4.66,1.48-4.66,1.48l-0.32,0.65l-0.76-6.22l1.37,0.96c0,0,15.69-0.83,16.33-1.83c0.46-0.53,1.31-1.52,1.31-1.52
	s0.46,2.25,0.45,3.17c0.07,1.98,0.87,3.2,0.73,5.03c-0.37,5.68-9.4,4.36-10.1,2.59c-1.29-2.13,0.37-3.89-0.98-4.72
	c-0.59,0.01-1.22-0.01-1.68,0.04c3.29,7.24-3.74,7.64-3.74,7.64s-0.98,0.25-0.72,2c-1.04-0.3-2.02-1.81-1.17-4.11
	C80.31,159.11,83.79,159.48,84.29,158.11 M88.11,157.51c0.2,1.17,2.15,1.81,4.37,1.43c2.21-0.37,3.84-1.62,3.64-2.8
	c-0.19-1.17-2.15-1.81-4.37-1.43C89.54,155.08,87.91,156.34,88.11,157.51 M91.5,195.33c-0.67-1.28-4.78-9.19-4.78-9.19l2.35,0.33
	l14.06-7.24l0.77-1.93c0,0,3.36,6.66,4.22,8.41c0.73,1.53,0.11,2.62-0.7,3.1c-0.81,0.46-10.65,6.15-12.06,6.99
	C94.12,196.33,92.32,196.81,91.5,195.33 M94.4,192.28c1.21-0.72,9.76-5.5,10.45-5.9c0.7-0.39,1.24-1.34,0.61-2.64
	c-0.2-0.41-0.36-0.73-0.78-1.57l-14.77,7.47c0.66,1.28,1.04,2,1.25,2.4C91.86,193.31,93.33,192.73,94.4,192.28 M103.69,176.55
	l-2-4.82l-1.42,1.53l-15.17,5.68l-1.61-0.24l1.97,5.06l1.22-1.26l14.7-6.01L103.69,176.55z M109,219.01
	c-0.95-1.08-6.85-7.77-6.85-7.77l2.36-0.25l11.9-10.4l0.28-2.06c0,0,4.87,5.64,6.12,7.14c1.08,1.3,0.74,2.52,0.07,3.16
	c-0.67,0.65-8.85,8.56-10.02,9.7C111.79,219.34,110.17,220.24,109,219.01 M107.88,215.89c1.01,1.07,2.29,0.16,3.21-0.54
	c1-0.99,8.15-7.68,8.72-8.24c0.57-0.55,0.88-1.6-0.05-2.71c-0.29-0.35-0.53-0.61-1.14-1.33l-12.53,10.8
	C107.04,214.95,107.58,215.56,107.88,215.89 M92.65,169.94c0.91-3.98,1.51-4.45,2.22-5.05c0.94-0.49,4.53-1,3.2,4.52
	c-0.36,1.11-2.37,2.63-2.37,2.63s3.58-0.44,5.48-1.66c-0.59-0.17-1.88-0.66-1.88-0.66s2.25-4.5-1.77-6.65
	c-3.32-1.48-6.62,0.05-7.97,4.14c-0.63,2.31-0.29,7.24-4.8,6.5c-0.24-0.16-3.57-1.11-2.12-6.41c0.31-0.29,1.37-1.71,1.37-1.71
	l-4.86,1.36l1.55,0.87c0,0-0.81,4.85,2.39,7.1C88.1,177.55,91.71,175.04,92.65,169.94 M82.87,148.99c0.22,0.02-5.46-1.05-4.4-6.93
	c1.85,0.04,6.4,0.24,6.4,0.24s-1.1,3.61,1.01,4.7c-0.21-2.69,1.2-1.92,2.03-4.9c1.5,0.05,4.9,0.05,6.68,0.07
	c0.57,4.72-4.45,5.91-4.45,5.91l6.3-0.02l0.07-10.43l-1.48,1.13l-7.65-0.47c0,0-1.33-1.57-2.9-2.28c0.97,1.13,0.63,2.14,0.63,2.14
	l-7.69-0.48l-0.74-1.3l0.11,12.69C76.8,149.05,82.66,148.98,82.87,148.99 M96.21,136.72l0.5-3.78l-1.4,0.4l-11.22-4.9l11.79-3.01
	l1.19,0.87l1.08-5.72l-1.32,1.28l-19.83,4.64l18.24,8.81L96.21,136.72z M101.43,196.26c-0.65-1.14-1.33-1.6-2.38-1.8
	c0.51,1.41,0.5,2.25,0.5,2.25l-4.9,1.02l-1.84-0.07l1.6,2.55l0.58-1.19c0,0,3.59-0.72,4.71-0.93c0.31,3.15,2.36,3.58,2.96,3.54
	c-1.01-1.35,0.16-3.3-0.61-4.27c1.01-0.26,5.06-1.29,5.06-1.29l-6.91,10.53l-1.47-0.09l2.88,3.73l0.31-1.69
	c0,0,11.3-15.19,11.16-15.2C112.95,193.34,102.31,196.09,101.43,196.26 M43.85,269.34c0.64,0.04,1.07,0.11,1.28,0.2
	c0.21,0.08,0.31,0.31,0.31,0.66c0,0.15-0.04,0.34-0.11,0.57c-0.04,0.14-0.09,0.29-0.14,0.43l-2.43,6.27l-2.94-6.86
	c-0.04-0.09-0.07-0.19-0.08-0.27c-0.02-0.08-0.02-0.17-0.02-0.26c0-0.3,0.1-0.49,0.29-0.57c0.2-0.08,0.63-0.13,1.3-0.17v-0.45h-6.25
	v0.45c0.43,0.04,0.75,0.15,0.95,0.35c0.2,0.2,0.4,0.52,0.59,0.97l4.79,11.16h0.49l4.25-10.95c0.21-0.54,0.43-0.92,0.66-1.13
	c0.23-0.21,0.57-0.34,1.02-0.39v-0.45h-3.96V269.34z M58.52,280.19c-0.75,0.46-1.72,0.69-2.91,0.69c-0.63,0-1.05-0.07-1.25-0.22
	c-0.2-0.14-0.3-0.41-0.3-0.8v-4.51c1.06,0,1.8,0.21,2.21,0.65c0.41,0.43,0.68,1.18,0.81,2.25h0.47v-6.29h-0.47
	c-0.2,1.05-0.49,1.78-0.86,2.18c-0.37,0.39-1.09,0.59-2.16,0.57v-4.31c0-0.35,0.08-0.59,0.23-0.71c0.15-0.11,0.51-0.17,1.08-0.17
	c1.5,0,2.53,0.22,3.1,0.66c0.56,0.44,0.96,1.26,1.2,2.46h0.45v-3.76H49.4v0.47c0.54,0.03,0.91,0.11,1.12,0.22
	c0.36,0.19,0.53,0.55,0.53,1.09v9.02c0,0.53-0.17,0.9-0.52,1.09c-0.22,0.12-0.6,0.2-1.14,0.22v0.47h10.89l0.75-3.88h-0.52
	C59.95,278.87,59.27,279.73,58.52,280.19 M75.19,280.94c0.11,0.05,0.26,0.07,0.43,0.09v0.44h-3.89l-4.35-5.82h-0.01v3.65
	c0,0.65,0.11,1.09,0.33,1.32c0.22,0.22,0.66,0.35,1.31,0.37v0.47h-6.29V281c0.63-0.03,1.06-0.15,1.29-0.35
	c0.23-0.2,0.34-0.65,0.34-1.34v-8.24c0-0.71-0.13-1.18-0.41-1.4c-0.18-0.14-0.59-0.24-1.23-0.3v-0.47h5.99
	c1.24,0,2.25,0.13,3.02,0.39c1.49,0.53,2.24,1.47,2.24,2.85c0,1.01-0.39,1.81-1.17,2.39c-0.6,0.44-1.23,0.71-1.9,0.84l3.96,5.3
	C74.96,280.8,75.07,280.9,75.19,280.94 M70.78,272.29c0-0.72-0.1-1.29-0.3-1.71c-0.35-0.71-0.98-1.06-1.89-1.06
	c-0.5,0-0.82,0.06-0.98,0.18c-0.15,0.12-0.23,0.33-0.23,0.61v4.74c1.22-0.01,2.09-0.19,2.62-0.51
	C70.52,274.21,70.78,273.46,70.78,272.29 M87.97,270.72c1.1,1.11,1.65,2.61,1.65,4.49c0,1.69-0.55,3.11-1.65,4.28
	c-1.24,1.31-2.93,1.97-5.06,1.97h-5.88V281c0.46-0.03,0.8-0.1,1.01-0.2c0.36-0.19,0.55-0.53,0.55-1.03v-9.18
	c0-0.48-0.17-0.81-0.52-1c-0.2-0.11-0.55-0.19-1.04-0.23v-0.47h5.69C85.01,268.89,86.76,269.5,87.97,270.72 M86.38,275.19
	c0-1.32-0.19-2.45-0.57-3.39c-0.62-1.52-1.66-2.28-3.13-2.28c-0.48,0-0.8,0.1-0.95,0.31c-0.1,0.13-0.14,0.39-0.14,0.77v9.17
	c0.02,0.38,0.09,0.66,0.22,0.83c0.12,0.16,0.38,0.25,0.79,0.25c1.11,0,2.01-0.39,2.72-1.17C86.02,278.9,86.38,277.4,86.38,275.19
	 M104.12,281v0.47H98.1V281c0.61-0.02,1.01-0.08,1.2-0.15c0.18-0.08,0.28-0.28,0.28-0.6c0-0.15-0.05-0.36-0.15-0.66
	c-0.06-0.18-0.14-0.39-0.24-0.64l-0.47-1.12h-4.18c-0.27,0.74-0.45,1.22-0.52,1.44c-0.17,0.48-0.25,0.83-0.25,1.05
	c0,0.27,0.18,0.46,0.54,0.58c0.21,0.07,0.53,0.1,0.95,0.11v0.47h-3.8V281c0.45-0.03,0.81-0.23,1.08-0.61
	c0.18-0.24,0.43-0.76,0.76-1.56l4.14-10.2h0.52l4.15,9.79c0.47,1.1,0.82,1.81,1.05,2.13C103.37,280.86,103.7,281.01,104.12,281
	 M98.44,277.08l-1.79-4.31h-0.15l-1.68,4.31H98.44z M116.66,270.72c1.1,1.11,1.65,2.61,1.65,4.49c0,1.69-0.56,3.11-1.66,4.28
	c-1.24,1.31-2.93,1.97-5.06,1.97h-5.88V281c0.46-0.03,0.8-0.1,1.01-0.2c0.36-0.19,0.55-0.53,0.55-1.03v-9.18
	c0-0.48-0.17-0.81-0.52-1c-0.2-0.11-0.55-0.19-1.03-0.23v-0.47h5.69C113.7,268.89,115.45,269.5,116.66,270.72 M115.07,275.19
	c0-1.32-0.19-2.45-0.57-3.39c-0.61-1.52-1.66-2.28-3.13-2.28c-0.49,0-0.8,0.1-0.94,0.31c-0.1,0.13-0.15,0.39-0.15,0.77v9.17
	c0.02,0.38,0.09,0.66,0.22,0.83c0.12,0.16,0.39,0.25,0.8,0.25c1.1,0,2.01-0.39,2.72-1.17C114.71,278.9,115.07,277.4,115.07,275.19
	 M122.82,278.59c-0.46,0-0.82,0.14-1.11,0.44c-0.28,0.29-0.42,0.67-0.42,1.14c0,0.44,0.14,0.79,0.41,1.05
	c0.27,0.26,0.59,0.39,0.99,0.39c0,0,0.06-0.01,0.15-0.02c0.09-0.02,0.17-0.02,0.23-0.02c0.12,0,0.22,0.04,0.28,0.11
	c0.06,0.08,0.09,0.18,0.09,0.31c0,0.45-0.25,0.92-0.76,1.43c-0.28,0.29-0.71,0.63-1.27,1.02l0.22,0.41
	c0.82-0.47,1.45-0.93,1.89-1.36c0.8-0.82,1.2-1.73,1.2-2.73c0-0.66-0.18-1.18-0.53-1.57C123.83,278.79,123.37,278.59,122.82,278.59
	 M142.43,278.01c0,1.03-0.47,1.87-1.43,2.51c-0.95,0.64-2.22,0.96-3.8,0.96h-5.99V281c0.5-0.02,0.86-0.08,1.08-0.2
	c0.37-0.2,0.55-0.57,0.55-1.11v-9.02c0-0.54-0.17-0.9-0.52-1.09c-0.21-0.11-0.58-0.18-1.12-0.22v-0.47h5.76
	c1.11,0,2.03,0.12,2.76,0.38c1.39,0.48,2.08,1.35,2.08,2.62c0,0.77-0.28,1.38-0.84,1.83c-0.56,0.45-1.17,0.74-1.82,0.86v0.17
	c0.69,0.13,1.29,0.36,1.8,0.67C141.93,276.04,142.43,276.9,142.43,278.01 M135.82,274.53c1.15,0,1.92-0.19,2.32-0.56
	c0.39-0.37,0.59-1.04,0.59-2c0-0.71-0.13-1.31-0.39-1.79c-0.26-0.49-0.75-0.73-1.49-0.73c-0.39,0-0.66,0.07-0.81,0.2
	c-0.15,0.13-0.22,0.37-0.22,0.7V274.53z M139.22,278.11c0-1.32-0.39-2.2-1.17-2.64c-0.47-0.27-1.21-0.39-2.23-0.37v4.65
	c0.01,0.33,0.05,0.57,0.14,0.72c0.15,0.26,0.44,0.4,0.87,0.4c0.89,0,1.5-0.24,1.86-0.72C139.04,279.67,139.22,278.99,139.22,278.11
	 M153.64,280.19c-0.75,0.46-1.72,0.69-2.91,0.69c-0.62,0-1.04-0.07-1.25-0.22c-0.2-0.14-0.3-0.41-0.3-0.8v-4.51
	c1.06,0,1.8,0.21,2.21,0.65c0.41,0.43,0.68,1.18,0.81,2.25h0.48v-6.29h-0.48c-0.2,1.05-0.48,1.78-0.85,2.18
	c-0.38,0.39-1.1,0.59-2.16,0.57v-4.31c0-0.35,0.08-0.59,0.23-0.71c0.15-0.11,0.51-0.17,1.08-0.17c1.5,0,2.53,0.22,3.1,0.66
	c0.57,0.44,0.97,1.26,1.2,2.46h0.45v-3.76h-10.73v0.47c0.54,0.03,0.91,0.11,1.12,0.22c0.35,0.19,0.53,0.55,0.53,1.09v9.02
	c0,0.53-0.17,0.9-0.51,1.09c-0.23,0.12-0.61,0.2-1.14,0.22v0.47h10.89l0.75-3.88h-0.52C155.06,278.87,154.4,279.73,153.64,280.19
	 M166.9,280.14c-0.76,0.49-1.7,0.74-2.83,0.74c-0.62,0-1.04-0.07-1.26-0.2c-0.22-0.13-0.32-0.4-0.32-0.82v-8.8
	c0-0.73,0.12-1.2,0.38-1.38c0.25-0.19,0.76-0.29,1.51-0.32v-0.47h-6.51v0.47c0.54,0.03,0.91,0.11,1.12,0.22
	c0.35,0.19,0.52,0.55,0.52,1.09v9.02c0,0.55-0.18,0.92-0.56,1.11c-0.21,0.11-0.58,0.18-1.09,0.2v0.47h10.79l0.75-4.22h-0.55
	C168.32,278.69,167.66,279.65,166.9,280.14 M180.22,280.14c-0.76,0.49-1.7,0.74-2.83,0.74c-0.62,0-1.04-0.07-1.26-0.2
	c-0.22-0.13-0.33-0.4-0.33-0.82v-8.8c0-0.73,0.13-1.2,0.38-1.38c0.25-0.19,0.75-0.29,1.51-0.32v-0.47h-6.51v0.47
	c0.54,0.03,0.91,0.11,1.11,0.22c0.36,0.19,0.53,0.55,0.53,1.09v9.02c0,0.55-0.18,0.92-0.55,1.11c-0.22,0.11-0.58,0.18-1.09,0.2v0.47
	h10.78l0.75-4.22h-0.54C181.65,278.69,180.99,279.65,180.22,280.14 M193.6,280.19c-0.76,0.46-1.72,0.69-2.91,0.69
	c-0.63,0-1.05-0.07-1.25-0.22c-0.2-0.14-0.3-0.41-0.3-0.8v-4.51c1.06,0,1.79,0.21,2.21,0.65c0.4,0.43,0.68,1.18,0.81,2.25h0.47
	v-6.29h-0.47c-0.2,1.05-0.49,1.78-0.86,2.18c-0.38,0.39-1.09,0.59-2.16,0.57v-4.31c0-0.35,0.08-0.59,0.23-0.71
	c0.16-0.11,0.51-0.17,1.08-0.17c1.5,0,2.53,0.22,3.1,0.66c0.56,0.44,0.97,1.26,1.2,2.46h0.46v-3.76h-10.73v0.47
	c0.54,0.03,0.91,0.11,1.12,0.22c0.35,0.19,0.54,0.55,0.54,1.09v9.02c0,0.53-0.17,0.9-0.52,1.09c-0.22,0.12-0.6,0.2-1.13,0.22v0.47
	h10.88l0.75-3.88h-0.52C195.01,278.87,194.35,279.73,193.6,280.19 M206.88,280.24c-0.89,0.39-2.63,0.58-5.2,0.58l7.2-11.64v-0.3
	h-9.89l-0.39,3.84h0.52c0.34-0.92,0.65-1.55,0.93-1.91c0.45-0.6,1.09-0.97,1.89-1.13c0.23-0.05,0.48-0.09,0.75-0.11
	c0.28-0.03,1.13-0.04,2.57-0.04L198,281.18v0.3h10.93l0.5-4.48h-0.5C208.46,278.77,207.77,279.86,206.88,280.24 M223.82,281v0.47
	h-6.03V281c0.61-0.02,1.01-0.08,1.2-0.15c0.19-0.08,0.29-0.28,0.29-0.6c0-0.15-0.05-0.36-0.14-0.66c-0.06-0.18-0.15-0.39-0.25-0.64
	l-0.47-1.12h-4.18c-0.27,0.74-0.45,1.22-0.53,1.44c-0.16,0.48-0.24,0.83-0.24,1.05c0,0.27,0.18,0.46,0.54,0.58
	c0.21,0.07,0.53,0.1,0.96,0.11v0.47h-3.8V281c0.45-0.03,0.81-0.23,1.08-0.61c0.18-0.24,0.43-0.76,0.75-1.56l4.14-10.2h0.51
	l4.16,9.79c0.47,1.1,0.81,1.81,1.04,2.13C223.07,280.86,223.4,281.01,223.82,281 M218.14,277.08l-1.8-4.31h-0.15l-1.68,4.31H218.14z
	 M228.17,278.59c-0.45,0-0.83,0.14-1.1,0.44c-0.28,0.29-0.43,0.67-0.43,1.14c0,0.44,0.14,0.79,0.4,1.05c0.27,0.26,0.59,0.39,1,0.39
	c0,0,0.06-0.01,0.15-0.02c0.09-0.02,0.16-0.02,0.23-0.02c0.12,0,0.21,0.04,0.28,0.11c0.06,0.08,0.09,0.18,0.09,0.31
	c0,0.45-0.25,0.92-0.76,1.43c-0.29,0.29-0.7,0.63-1.27,1.02l0.22,0.41c0.82-0.47,1.45-0.93,1.88-1.36c0.8-0.82,1.2-1.73,1.2-2.73
	c0-0.66-0.18-1.18-0.54-1.57C229.18,278.79,228.72,278.59,228.17,278.59 M247.42,272.32c0,0.61-0.17,1.19-0.49,1.73
	c-0.32,0.53-0.86,0.97-1.6,1.29c-0.57,0.23-1.13,0.37-1.69,0.42c-0.56,0.05-1.4,0.07-2.51,0.07v3.48c0,0.68,0.11,1.13,0.34,1.34
	c0.23,0.21,0.66,0.33,1.29,0.35v0.47h-6.2V281c0.61-0.04,1.02-0.17,1.24-0.39c0.21-0.22,0.31-0.65,0.31-1.31v-8.24
	c0-0.7-0.11-1.14-0.32-1.32c-0.21-0.18-0.62-0.31-1.23-0.38v-0.47h5.99c1.59,0,2.8,0.26,3.62,0.77
	C247,270.17,247.42,271.06,247.42,272.32 M244.23,272.37c0-0.85-0.14-1.54-0.43-2.06c-0.29-0.52-0.83-0.78-1.64-0.78
	c-0.37,0-0.64,0.04-0.79,0.13c-0.16,0.09-0.24,0.26-0.24,0.51v5c1.11-0.02,1.85-0.14,2.22-0.38
	C243.93,274.42,244.23,273.61,244.23,272.37 M261.3,280.94c0.12,0.05,0.26,0.07,0.43,0.09v0.44h-3.88l-4.35-5.82h0v3.65
	c0,0.65,0.11,1.09,0.32,1.32c0.22,0.22,0.66,0.35,1.31,0.37v0.47h-6.29V281c0.63-0.03,1.06-0.15,1.3-0.35
	c0.22-0.2,0.34-0.65,0.34-1.34v-8.24c0-0.71-0.13-1.18-0.4-1.4c-0.19-0.14-0.59-0.24-1.23-0.3v-0.47h5.99
	c1.24,0,2.26,0.13,3.02,0.39c1.5,0.53,2.24,1.47,2.24,2.85c0,1.01-0.39,1.81-1.17,2.39c-0.59,0.44-1.23,0.71-1.9,0.84l3.96,5.3
	C261.07,280.8,261.18,280.9,261.3,280.94 M256.89,272.29c0-0.72-0.1-1.29-0.3-1.71c-0.34-0.71-0.97-1.06-1.89-1.06
	c-0.5,0-0.82,0.06-0.98,0.18c-0.15,0.12-0.23,0.33-0.23,0.61v4.74c1.21-0.01,2.09-0.19,2.61-0.51
	C256.63,274.21,256.89,273.46,256.89,272.29 M274.78,270.42c1.28,1.24,1.92,2.85,1.92,4.8c0,1.96-0.64,3.56-1.92,4.8
	c-1.25,1.21-2.81,1.82-4.68,1.82c-2,0-3.62-0.67-4.87-1.99c-1.17-1.25-1.76-2.76-1.76-4.53c0-1.95,0.61-3.55,1.83-4.81
	c1.24-1.27,2.84-1.91,4.79-1.91C271.98,268.6,273.54,269.21,274.78,270.42 M273.39,275.23c0-1.98-0.3-3.48-0.89-4.48
	c-0.59-1.01-1.39-1.51-2.41-1.51c-1.42,0-2.37,0.84-2.9,2.52c-0.27,0.89-0.41,2.05-0.41,3.47c0,1.45,0.14,2.62,0.42,3.51
	c0.51,1.66,1.47,2.48,2.89,2.48c1.39,0,2.35-0.83,2.88-2.48C273.25,277.84,273.39,276.67,273.39,275.23 M289.78,278.01
	c0,1.03-0.48,1.87-1.43,2.51c-0.95,0.64-2.23,0.96-3.8,0.96h-6V281c0.5-0.02,0.86-0.08,1.08-0.2c0.37-0.2,0.56-0.57,0.56-1.11v-9.02
	c0-0.54-0.18-0.9-0.52-1.09c-0.21-0.11-0.58-0.18-1.12-0.22v-0.47h5.76c1.11,0,2.03,0.12,2.76,0.38c1.39,0.48,2.08,1.35,2.08,2.62
	c0,0.77-0.28,1.38-0.84,1.83c-0.56,0.45-1.17,0.74-1.83,0.86v0.17c0.69,0.13,1.29,0.36,1.8,0.67
	C289.28,276.04,289.78,276.9,289.78,278.01 M283.17,274.53c1.15,0,1.93-0.19,2.32-0.56c0.39-0.37,0.59-1.04,0.59-2
	c0-0.71-0.13-1.31-0.39-1.79c-0.26-0.49-0.75-0.73-1.48-0.73c-0.38,0-0.66,0.07-0.81,0.2c-0.15,0.13-0.22,0.37-0.22,0.7V274.53z
	 M286.57,278.11c0-1.32-0.39-2.2-1.18-2.64c-0.47-0.27-1.21-0.39-2.22-0.37v4.65c0.01,0.33,0.06,0.57,0.14,0.72
	c0.15,0.26,0.44,0.4,0.87,0.4c0.88,0,1.5-0.24,1.85-0.72C286.4,279.67,286.57,278.99,286.57,278.11 M291.88,269.36
	c0.56,0.03,0.94,0.09,1.16,0.21c0.36,0.19,0.54,0.55,0.54,1.1v9.02c0,0.55-0.19,0.92-0.57,1.12c-0.23,0.11-0.61,0.18-1.13,0.19v0.47
	h6.51V281c-0.58,0-1.02-0.09-1.31-0.26c-0.29-0.17-0.44-0.52-0.44-1.04v-9.02c0-0.55,0.18-0.92,0.55-1.11
	c0.22-0.11,0.62-0.18,1.2-0.2v-0.47h-6.51V269.36z M310.93,270.72c1.1,1.11,1.65,2.61,1.65,4.49c0,1.69-0.55,3.11-1.66,4.28
	c-1.24,1.31-2.93,1.97-5.06,1.97h-5.89V281c0.47-0.03,0.8-0.1,1.01-0.2c0.36-0.19,0.55-0.53,0.55-1.03v-9.18
	c0-0.48-0.17-0.81-0.52-1c-0.2-0.11-0.54-0.19-1.04-0.23v-0.47h5.69C307.97,268.89,309.72,269.5,310.93,270.72 M309.33,275.19
	c0-1.32-0.19-2.45-0.57-3.39c-0.61-1.52-1.66-2.28-3.13-2.28c-0.48,0-0.8,0.1-0.95,0.31c-0.09,0.13-0.14,0.39-0.14,0.77v9.17
	c0.02,0.38,0.09,0.66,0.21,0.83c0.12,0.16,0.39,0.25,0.8,0.25c1.1,0,2.01-0.39,2.72-1.17C308.98,278.9,309.33,277.4,309.33,275.19
	 M327.08,281v0.47h-6.03V281c0.61-0.02,1-0.08,1.2-0.15c0.19-0.08,0.28-0.28,0.28-0.6c0-0.15-0.05-0.36-0.15-0.66
	c-0.06-0.18-0.14-0.39-0.25-0.64l-0.47-1.12h-4.19c-0.27,0.74-0.44,1.22-0.52,1.44c-0.16,0.48-0.24,0.83-0.24,1.05
	c0,0.27,0.18,0.46,0.54,0.58c0.21,0.07,0.52,0.1,0.95,0.11v0.47h-3.8V281c0.45-0.03,0.81-0.23,1.08-0.61
	c0.18-0.24,0.42-0.76,0.75-1.56l4.14-10.2h0.52l4.16,9.79c0.46,1.1,0.81,1.81,1.04,2.13C326.33,280.86,326.66,281.01,327.08,281
	 M321.4,277.08l-1.79-4.31h-0.16l-1.68,4.31H321.4z M341.26,275.22c0,1.69-0.55,3.11-1.66,4.28c-1.24,1.31-2.93,1.97-5.06,1.97
	h-5.88V281c0.46-0.03,0.8-0.1,1-0.2c0.37-0.19,0.55-0.53,0.55-1.03v-9.18c0-0.48-0.17-0.81-0.52-1c-0.2-0.11-0.54-0.19-1.03-0.23
	v-0.47h5.69c2.3,0,4.05,0.61,5.26,1.84C340.71,271.84,341.26,273.34,341.26,275.22 M338.03,275.19c0-1.32-0.19-2.45-0.57-3.39
	c-0.62-1.52-1.67-2.28-3.13-2.28c-0.49,0-0.8,0.1-0.94,0.31c-0.09,0.13-0.15,0.39-0.15,0.77v9.17c0.02,0.38,0.09,0.66,0.22,0.83
	c0.13,0.16,0.39,0.25,0.8,0.25c1.1,0,2.01-0.39,2.72-1.17C337.67,278.9,338.03,277.4,338.03,275.19"/>
</svg>
